<?xml version="1.0" encoding="UTF-8" standalone="no"?><!DOCTYPE svg PUBLIC "-//W3C//DTD SVG 1.1//EN" "http://www.w3.org/Graphics/SVG/1.1/DTD/svg11.dtd"><svg width="100%" height="100%" viewBox="0 0 200 160" version="1.1" xmlns="http://www.w3.org/2000/svg" xmlns:xlink="http://www.w3.org/1999/xlink" xml:space="preserve" xmlns:serif="http://www.serif.com/" style="fill-rule:evenodd;clip-rule:evenodd;stroke-linecap:round;stroke-miterlimit:1.5;"><rect id="Mesa-de-trabajo6" serif:id="Mesa de trabajo6" x="-0" y="-0" width="200" height="160" style="fill:none;"/><clipPath id="_clip1"><rect x="-0" y="-0" width="200" height="160"/></clipPath><g clip-path="url(#_clip1)"><g><path d="M3.056,2.637l193.741,0l0,154.233l-193.741,0l-0,-154.233Z" style="fill:none;stroke:#023047;stroke-width:6px;"/><rect x="109.466" y="49.686" width="75.635" height="67.751" style="fill:none;stroke:#023047;stroke-width:6px;stroke-linecap:square;"/><path d="M3.056,36.459l193.741,1.562" style="fill:none;stroke:#023047;stroke-width:6px;"/><path d="M187.077,18.791l-75.338,0" style="fill:none;stroke:#023047;stroke-width:6px;stroke-linejoin:round;"/><path d="M99.657,19.103l-11.594,0" style="fill:none;stroke:#023047;stroke-width:6px;stroke-linejoin:round;"/><path d="M73.327,19.103l-11.594,0" style="fill:none;stroke:#023047;stroke-width:6px;stroke-linejoin:round;"/><path d="M61.733,19.103l-11.594,0" style="fill:none;stroke:#023047;stroke-width:6px;stroke-linejoin:round;"/><path d="M38.183,18.883l-11.594,0" style="fill:none;stroke:#023047;stroke-width:6px;stroke-linejoin:round;"/><g transform="matrix(0.79688,0,0,1.30854,-71.0863,-201.632)"><g transform="matrix(16.8278,0,0,16.8278,105.436,200.919)"><path d="M0.537,-0.082l-0.491,-0.213l0,-0.118l0.491,-0.212l0,0.139l-0.342,0.131l0.342,0.135l0,0.138Z" style="fill:#023047;fill-rule:nonzero;"/></g><g transform="matrix(16.8278,0,0,16.8278,119.938,200.919)"><path d="M-0.001,0.012l0.177,-0.74l0.103,-0l-0.179,0.74l-0.101,0Z" style="fill:#023047;fill-rule:nonzero;"/></g><g transform="matrix(16.8278,0,0,16.8278,129.289,200.919)"><path d="M0.046,-0.081l0,-0.138l0.343,-0.135l-0.343,-0.133l0,-0.138l0.492,0.213l-0,0.117l-0.492,0.214Z" style="fill:#023047;fill-rule:nonzero;"/></g><g transform="matrix(16.8278,0,0,16.8278,143.791,200.919)"><rect x="0.056" y="-0.328" width="0.27" height="0.137" style="fill:#023047;fill-rule:nonzero;"/></g><g transform="matrix(16.8278,0,0,16.8278,149.395,200.919)"><rect x="0.056" y="-0.328" width="0.27" height="0.137" style="fill:#023047;fill-rule:nonzero;"/></g><g transform="matrix(16.8278,0,0,16.8278,159.674,200.919)"><rect x="0.056" y="-0.328" width="0.27" height="0.137" style="fill:#023047;fill-rule:nonzero;"/></g><g transform="matrix(16.8278,0,0,16.8278,165.278,200.919)"><rect x="0.056" y="-0.328" width="0.27" height="0.137" style="fill:#023047;fill-rule:nonzero;"/></g><g transform="matrix(16.8278,0,0,16.8278,170.882,200.919)"><rect x="0.056" y="-0.328" width="0.27" height="0.137" style="fill:#023047;fill-rule:nonzero;"/></g><g transform="matrix(16.8278,0,0,16.8278,176.486,200.919)"><rect x="0.056" y="-0.328" width="0.27" height="0.137" style="fill:#023047;fill-rule:nonzero;"/></g><g transform="matrix(16.8278,0,0,16.8278,186.765,200.919)"><rect x="0.056" y="-0.328" width="0.27" height="0.137" style="fill:#023047;fill-rule:nonzero;"/></g><g transform="matrix(16.8278,0,0,16.8278,192.368,200.919)"><rect x="0.056" y="-0.328" width="0.27" height="0.137" style="fill:#023047;fill-rule:nonzero;"/></g><g transform="matrix(16.8278,0,0,16.8278,197.972,200.919)"><rect x="0.056" y="-0.328" width="0.27" height="0.137" style="fill:#023047;fill-rule:nonzero;"/></g><g transform="matrix(16.8278,0,0,16.8278,203.576,200.919)"><rect x="0.056" y="-0.328" width="0.27" height="0.137" style="fill:#023047;fill-rule:nonzero;"/></g><g transform="matrix(16.8278,0,0,16.8278,209.18,200.919)"><rect x="0.056" y="-0.328" width="0.27" height="0.137" style="fill:#023047;fill-rule:nonzero;"/></g><g transform="matrix(16.8278,0,0,16.8278,105.436,218.297)"><rect x="0.056" y="-0.328" width="0.27" height="0.137" style="fill:#023047;fill-rule:nonzero;"/></g><g transform="matrix(16.8278,0,0,16.8278,111.04,218.297)"><rect x="0.056" y="-0.328" width="0.27" height="0.137" style="fill:#023047;fill-rule:nonzero;"/></g><g transform="matrix(16.8278,0,0,16.8278,121.319,218.297)"><rect x="0.056" y="-0.328" width="0.27" height="0.137" style="fill:#023047;fill-rule:nonzero;"/></g><g transform="matrix(16.8278,0,0,16.8278,126.923,218.297)"><rect x="0.056" y="-0.328" width="0.27" height="0.137" style="fill:#023047;fill-rule:nonzero;"/></g><g transform="matrix(16.8278,0,0,16.8278,132.526,218.297)"><rect x="0.056" y="-0.328" width="0.27" height="0.137" style="fill:#023047;fill-rule:nonzero;"/></g><g transform="matrix(16.8278,0,0,16.8278,138.13,218.297)"><rect x="0.056" y="-0.328" width="0.27" height="0.137" style="fill:#023047;fill-rule:nonzero;"/></g><g transform="matrix(16.8278,0,0,16.8278,148.409,218.297)"><rect x="0.056" y="-0.328" width="0.27" height="0.137" style="fill:#023047;fill-rule:nonzero;"/></g><g transform="matrix(16.8278,0,0,16.8278,154.013,218.297)"><rect x="0.056" y="-0.328" width="0.27" height="0.137" style="fill:#023047;fill-rule:nonzero;"/></g><g transform="matrix(16.8278,0,0,16.8278,159.617,218.297)"><rect x="0.056" y="-0.328" width="0.27" height="0.137" style="fill:#023047;fill-rule:nonzero;"/></g><g transform="matrix(16.8278,0,0,16.8278,165.22,218.297)"><rect x="0.056" y="-0.328" width="0.27" height="0.137" style="fill:#023047;fill-rule:nonzero;"/></g><g transform="matrix(16.8278,0,0,16.8278,175.5,218.297)"><rect x="0.056" y="-0.328" width="0.27" height="0.137" style="fill:#023047;fill-rule:nonzero;"/></g><g transform="matrix(16.8278,0,0,16.8278,181.103,218.297)"><rect x="0.056" y="-0.328" width="0.27" height="0.137" style="fill:#023047;fill-rule:nonzero;"/></g><g transform="matrix(16.8278,0,0,16.8278,186.707,218.297)"><rect x="0.056" y="-0.328" width="0.27" height="0.137" style="fill:#023047;fill-rule:nonzero;"/></g><g transform="matrix(16.8278,0,0,16.8278,192.311,218.297)"><rect x="0.056" y="-0.328" width="0.27" height="0.137" style="fill:#023047;fill-rule:nonzero;"/></g><g transform="matrix(16.8278,0,0,16.8278,202.59,218.297)"><rect x="0.056" y="-0.328" width="0.27" height="0.137" style="fill:#023047;fill-rule:nonzero;"/></g><g transform="matrix(16.8278,0,0,16.8278,208.194,218.297)"><rect x="0.056" y="-0.328" width="0.27" height="0.137" style="fill:#023047;fill-rule:nonzero;"/></g><g transform="matrix(16.8278,0,0,16.8278,105.436,235.675)"><rect x="0.056" y="-0.328" width="0.27" height="0.137" style="fill:#023047;fill-rule:nonzero;"/></g><g transform="matrix(16.8278,0,0,16.8278,111.04,235.675)"><rect x="0.056" y="-0.328" width="0.27" height="0.137" style="fill:#023047;fill-rule:nonzero;"/></g><g transform="matrix(16.8278,0,0,16.8278,121.319,235.675)"><rect x="0.056" y="-0.328" width="0.27" height="0.137" style="fill:#023047;fill-rule:nonzero;"/></g><g transform="matrix(16.8278,0,0,16.8278,126.923,235.675)"><rect x="0.056" y="-0.328" width="0.27" height="0.137" style="fill:#023047;fill-rule:nonzero;"/></g><g transform="matrix(16.8278,0,0,16.8278,132.526,235.675)"><rect x="0.056" y="-0.328" width="0.27" height="0.137" style="fill:#023047;fill-rule:nonzero;"/></g><g transform="matrix(16.8278,0,0,16.8278,138.13,235.675)"><rect x="0.056" y="-0.328" width="0.27" height="0.137" style="fill:#023047;fill-rule:nonzero;"/></g><g transform="matrix(16.8278,0,0,16.8278,148.409,235.675)"><rect x="0.056" y="-0.328" width="0.27" height="0.137" style="fill:#023047;fill-rule:nonzero;"/></g><g transform="matrix(16.8278,0,0,16.8278,154.013,235.675)"><rect x="0.056" y="-0.328" width="0.27" height="0.137" style="fill:#023047;fill-rule:nonzero;"/></g><g transform="matrix(16.8278,0,0,16.8278,159.617,235.675)"><rect x="0.056" y="-0.328" width="0.27" height="0.137" style="fill:#023047;fill-rule:nonzero;"/></g><g transform="matrix(16.8278,0,0,16.8278,165.22,235.675)"><rect x="0.056" y="-0.328" width="0.27" height="0.137" style="fill:#023047;fill-rule:nonzero;"/></g><g transform="matrix(16.8278,0,0,16.8278,170.824,235.675)"><rect x="0.056" y="-0.328" width="0.27" height="0.137" style="fill:#023047;fill-rule:nonzero;"/></g><g transform="matrix(16.8278,0,0,16.8278,176.428,235.675)"><rect x="0.056" y="-0.328" width="0.27" height="0.137" style="fill:#023047;fill-rule:nonzero;"/></g><g transform="matrix(16.8278,0,0,16.8278,182.032,235.675)"><rect x="0.056" y="-0.328" width="0.27" height="0.137" style="fill:#023047;fill-rule:nonzero;"/></g><g transform="matrix(16.8278,0,0,16.8278,192.311,235.675)"><rect x="0.056" y="-0.328" width="0.27" height="0.137" style="fill:#023047;fill-rule:nonzero;"/></g><g transform="matrix(16.8278,0,0,16.8278,197.915,235.675)"><rect x="0.056" y="-0.328" width="0.27" height="0.137" style="fill:#023047;fill-rule:nonzero;"/></g><g transform="matrix(16.8278,0,0,16.8278,203.518,235.675)"><rect x="0.056" y="-0.328" width="0.27" height="0.137" style="fill:#023047;fill-rule:nonzero;"/></g><g transform="matrix(16.8278,0,0,16.8278,209.122,235.675)"><rect x="0.056" y="-0.328" width="0.27" height="0.137" style="fill:#023047;fill-rule:nonzero;"/></g></g><path d="M119.753,136.443l-6.58,-4.698l-0,-2.602l6.58,-4.677l-0,3.064l-4.59,2.881l4.59,2.99l-0,3.042Z" style="fill:#023047;fill-rule:nonzero;"/><path d="M120.362,138.508l2.377,-16.3l1.381,-0l-2.403,16.3l-1.355,-0Z" style="fill:#023047;fill-rule:nonzero;"/><path d="M124.729,136.454l0,-3.043l4.597,-2.967l-4.597,-2.935l0,-3.022l6.587,4.677l0,2.581l-6.587,4.709Z" style="fill:#023047;fill-rule:nonzero;"/><rect x="136.417" y="131.014" width="3.614" height="3.021" style="fill:#023047;fill-rule:nonzero;"/><rect x="140.882" y="131.014" width="3.614" height="3.021" style="fill:#023047;fill-rule:nonzero;"/><rect x="149.074" y="131.014" width="3.614" height="3.021" style="fill:#023047;fill-rule:nonzero;"/><rect x="153.539" y="131.014" width="3.614" height="3.021" style="fill:#023047;fill-rule:nonzero;"/><rect x="158.005" y="131.014" width="3.614" height="3.021" style="fill:#023047;fill-rule:nonzero;"/><rect x="162.47" y="131.014" width="3.614" height="3.021" style="fill:#023047;fill-rule:nonzero;"/><rect x="170.661" y="131.014" width="3.614" height="3.021" style="fill:#023047;fill-rule:nonzero;"/><rect x="175.127" y="131.014" width="3.614" height="3.021" style="fill:#023047;fill-rule:nonzero;"/><g transform="matrix(0.79688,0,0,1.30854,-52.3939,-137.882)"><g transform="matrix(16.8278,0,0,16.8278,105.436,200.919)"><path d="M0.046,-0.081l0,-0.138l0.343,-0.135l-0.343,-0.133l0,-0.138l0.492,0.213l-0,0.117l-0.492,0.214Z" style="fill:#023047;fill-rule:nonzero;"/></g><g transform="matrix(16.8278,0,0,16.8278,119.938,200.919)"><rect x="0.056" y="-0.328" width="0.27" height="0.137" style="fill:#023047;fill-rule:nonzero;"/></g><g transform="matrix(16.8278,0,0,16.8278,125.542,200.919)"><rect x="0.056" y="-0.328" width="0.27" height="0.137" style="fill:#023047;fill-rule:nonzero;"/></g><g transform="matrix(16.8278,0,0,16.8278,131.146,200.919)"><rect x="0.056" y="-0.328" width="0.27" height="0.137" style="fill:#023047;fill-rule:nonzero;"/></g><g transform="matrix(16.8278,0,0,16.8278,141.425,200.919)"><rect x="0.056" y="-0.328" width="0.27" height="0.137" style="fill:#023047;fill-rule:nonzero;"/></g><g transform="matrix(16.8278,0,0,16.8278,147.029,200.919)"><rect x="0.056" y="-0.328" width="0.27" height="0.137" style="fill:#023047;fill-rule:nonzero;"/></g><g transform="matrix(16.8278,0,0,16.8278,152.633,200.919)"><rect x="0.056" y="-0.328" width="0.27" height="0.137" style="fill:#023047;fill-rule:nonzero;"/></g><g transform="matrix(16.8278,0,0,16.8278,158.236,200.919)"><rect x="0.056" y="-0.328" width="0.27" height="0.137" style="fill:#023047;fill-rule:nonzero;"/></g><g transform="matrix(16.8278,0,0,16.8278,168.515,200.919)"><rect x="0.056" y="-0.328" width="0.27" height="0.137" style="fill:#023047;fill-rule:nonzero;"/></g><g transform="matrix(16.8278,0,0,16.8278,174.119,200.919)"><rect x="0.056" y="-0.328" width="0.27" height="0.137" style="fill:#023047;fill-rule:nonzero;"/></g><g transform="matrix(16.8278,0,0,16.8278,179.723,200.919)"><rect x="0.056" y="-0.328" width="0.27" height="0.137" style="fill:#023047;fill-rule:nonzero;"/></g><g transform="matrix(16.8278,0,0,16.8278,185.327,200.919)"><rect x="0.056" y="-0.328" width="0.27" height="0.137" style="fill:#023047;fill-rule:nonzero;"/></g><g transform="matrix(16.8278,0,0,16.8278,105.436,211.015)"><path d="M0.046,-0.081l0,-0.138l0.343,-0.135l-0.343,-0.133l0,-0.138l0.492,0.213l-0,0.117l-0.492,0.214Z" style="fill:#023047;fill-rule:nonzero;"/></g><g transform="matrix(16.8278,0,0,16.8278,119.938,211.015)"><rect x="0.056" y="-0.328" width="0.27" height="0.137" style="fill:#023047;fill-rule:nonzero;"/></g><g transform="matrix(16.8278,0,0,16.8278,125.542,211.015)"><rect x="0.056" y="-0.328" width="0.27" height="0.137" style="fill:#023047;fill-rule:nonzero;"/></g><g transform="matrix(16.8278,0,0,16.8278,131.146,211.015)"><rect x="0.056" y="-0.328" width="0.27" height="0.137" style="fill:#023047;fill-rule:nonzero;"/></g><g transform="matrix(16.8278,0,0,16.8278,141.425,211.015)"><rect x="0.056" y="-0.328" width="0.27" height="0.137" style="fill:#023047;fill-rule:nonzero;"/></g><g transform="matrix(16.8278,0,0,16.8278,147.029,211.015)"><rect x="0.056" y="-0.328" width="0.27" height="0.137" style="fill:#023047;fill-rule:nonzero;"/></g><g transform="matrix(16.8278,0,0,16.8278,152.633,211.015)"><rect x="0.056" y="-0.328" width="0.27" height="0.137" style="fill:#023047;fill-rule:nonzero;"/></g><g transform="matrix(16.8278,0,0,16.8278,158.236,211.015)"><rect x="0.056" y="-0.328" width="0.27" height="0.137" style="fill:#023047;fill-rule:nonzero;"/></g><g transform="matrix(16.8278,0,0,16.8278,168.515,211.015)"><rect x="0.056" y="-0.328" width="0.27" height="0.137" style="fill:#023047;fill-rule:nonzero;"/></g><g transform="matrix(16.8278,0,0,16.8278,174.119,211.015)"><rect x="0.056" y="-0.328" width="0.27" height="0.137" style="fill:#023047;fill-rule:nonzero;"/></g><g transform="matrix(16.8278,0,0,16.8278,179.723,211.015)"><rect x="0.056" y="-0.328" width="0.27" height="0.137" style="fill:#023047;fill-rule:nonzero;"/></g><g transform="matrix(16.8278,0,0,16.8278,185.327,211.015)"><rect x="0.056" y="-0.328" width="0.27" height="0.137" style="fill:#023047;fill-rule:nonzero;"/></g></g></g><path d="M109.466,63.106l75.635,0l-59.152,0l-0,51.737" style="fill:none;stroke:#023047;stroke-width:6px;stroke-linecap:square;"/><rect x="133.833" y="70.497" width="43.361" height="16.014" style="fill:none;stroke:#023047;stroke-width:6px;stroke-linecap:square;"/><rect x="133.833" y="93.409" width="13.451" height="16.507" style="fill:none;stroke:#023047;stroke-width:6px;stroke-linecap:square;"/><rect x="155.513" y="93.409" width="21.68" height="16.507" style="fill:none;stroke:#023047;stroke-width:6px;stroke-linecap:square;"/></g></svg>